<?xml version="1.0" encoding="utf-8"?>
<!-- Generator: Adobe Illustrator 16.0.0, SVG Export Plug-In . SVG Version: 6.00 Build 0)  -->
<!DOCTYPE svg PUBLIC "-//W3C//DTD SVG 1.1//EN" "http://www.w3.org/Graphics/SVG/1.1/DTD/svg11.dtd">
<svg version="1.1" id="Layer_1" xmlns="http://www.w3.org/2000/svg" xmlns:xlink="http://www.w3.org/1999/xlink" x="0px" y="0px"
	 width="350px" height="350px" viewBox="0 0 350 350" enable-background="new 0 0 350 350" xml:space="preserve">
<rect x="2.5" y="1.5" display="none" stroke="#FFFFFF" stroke-miterlimit="10" width="346" height="347"/>
<path stroke="#FFFFFF" stroke-miterlimit="10" d="M345.5,336.5c0,6.627-5.373,12-12,12h-319c-6.627,0-12-5.373-12-12v-323
	c0-6.627,5.373-12,12-12h319c6.627,0,12,5.373,12,12V336.5z"/>
<path fill="#FFFFFF" stroke="#FFFFFF" stroke-width="24" stroke-miterlimit="10" d="M159.491,291.184
	c-5.727,8.67-13.24,15.1-22.534,19.295c-9.299,4.188-19.01,6.287-29.134,6.287c-21.246,0-31.871-4.859-31.871-14.578
	c0-2.285,0.708-4.336,2.116-6.145c1.412-1.813,3.112-2.715,5.104-2.715s4.525,0.473,7.595,1.428c3.073,0.953,6.599,1.43,10.583,1.43
	c21.576,0,36.436-7.432,44.57-22.293c4.314-7.619,7.509-15.766,9.586-24.44c2.074-8.668,3.774-19.579,5.105-32.728l16.683-167.499
	h-62.997c-4.482,0-6.723-2.952-6.723-8.86c0-2.858,0.661-5.19,1.992-7.003c1.326-1.81,2.987-2.716,4.979-2.716h74.949
	c5.311,0,7.968,2.479,7.968,7.432v1.429l-18.177,182.935c-1.494,15.435-3.735,28.583-6.724,39.445
	C169.575,272.748,165.218,282.51,159.491,291.184z"/>
<path fill="#FFFFFF" stroke="#FFFFFF" stroke-width="24" stroke-miterlimit="10" d="M188.44,66.104l-8.21,88.761h8.771
	c5.347,0,10.791-1.961,16.328-5.884c5.534-3.924,10.512-9.03,14.929-15.325c4.415-6.291,8.366-13.279,11.85-20.964
	c7.339-15.854,11.011-30.811,11.011-44.871c0-5.064,2.362-7.602,7.092-7.602c4.727,0,7.091,2.537,7.091,7.602
	c0,17.493-4.386,35.186-13.157,53.085c-8.77,17.899-19.313,30.937-31.63,39.108l-0.187,1.717
	c8.086,4.413,14.369,13.16,18.848,26.236c2.487,7.355,4.601,14.712,6.345,22.067c1.741,7.356,2.922,12.18,3.546,14.467l11.57,44.379
	c0.122,0.49,0.187,1.434,0.187,2.82c0,1.393-0.718,2.697-2.146,3.924c-1.432,1.227-3.639,1.84-6.625,1.84
	c-2.985,0-4.916-1.801-5.784-5.395l-13.063-50.512c-0.624-2.287-1.524-5.801-2.705-10.543c-1.185-4.739-2.024-8.007-2.52-9.807
	c-0.499-1.798-1.277-4.453-2.333-7.97c-1.059-3.514-1.991-5.965-2.799-7.355c-0.811-1.388-1.866-3.269-3.173-5.64
	c-1.307-2.368-2.677-4.004-4.105-4.904c-1.432-0.896-3.144-2-5.132-3.311c-3.111-1.797-8.024-2.697-14.743-2.697h-8.956
	c-0.251,3.107-1.493,16.552-3.733,40.336c-2.239,23.783-4.105,43.768-5.598,59.952c-0.498,5.229-3.018,7.846-7.559,7.846
	c-4.542,0-6.811-2.293-6.811-6.867c0-0.49,6.28-67.999,18.848-202.532c0.496-5.229,3.048-7.847,7.651-7.847
	C186.137,60.219,188.44,62.181,188.44,66.104z"/>
</svg>
